<svg width="32" height="32" viewBox="0 0 32 32" fill="none" xmlns="http://www.w3.org/2000/svg">
<g clip-path="url(#clip0_106_2)">
<rect width="32" height="32" rx="9.375" fill="#F4F4F4"/>
<rect x="1.95624" y="11.875" width="32.7668" height="32" rx="5.875" transform="rotate(5.75039 1.95624 11.875)" fill="#FF7315"/>
<rect x="0.536163" y="6.25406" width="32.7668" height="32" rx="5.5" transform="rotate(7.21908 0.536163 6.25406)" fill="#FF7315"/>
<rect x="-0.625" y="17.952" width="32.4111" height="32" rx="5.875" transform="rotate(-5.38718 -0.625 17.952)" fill="#232020"/>
<path d="M13.9081 21.3301L13.9081 21.33C13.7801 21.2163 13.6123 21.158 13.4415 21.1679C13.2706 21.1779 13.1107 21.2552 12.9968 21.383L12.9967 21.3831L7.92343 27.0905L5.62832 24.5086L5.62837 24.5086L5.62552 24.5056C5.5101 24.3841 5.35197 24.3122 5.18453 24.3051C5.01709 24.2981 4.85347 24.3563 4.72821 24.4677C4.60296 24.579 4.52588 24.7347 4.51328 24.9018C4.50067 25.0689 4.55351 25.2344 4.66064 25.3632L4.66059 25.3633L4.66334 25.3664L7.44093 28.4914C7.44094 28.4914 7.44094 28.4914 7.44094 28.4914C7.50153 28.5596 7.57588 28.6141 7.65908 28.6515C7.74229 28.6889 7.83248 28.7082 7.92369 28.7082C8.01491 28.7082 8.10509 28.6889 8.1883 28.6515C8.27151 28.6141 8.34585 28.5596 8.40645 28.4914C8.40645 28.4914 8.40645 28.4914 8.40645 28.4914L13.9617 22.2414L13.9617 22.2413C14.0753 22.1133 14.1335 21.9455 14.1235 21.7746C14.1134 21.6037 14.036 21.4438 13.9081 21.3301Z" fill="#F4F4F4" stroke="#F4F4F4" stroke-width="0.25"/>
</g>
<rect x="0.25" y="0.25" width="31.5" height="31.5" rx="9.125" stroke="#F4F4F4" stroke-width="0.5"/>
<defs>
<clipPath id="clip0_106_2">
<rect width="32" height="32" rx="9.375" fill="white"/>
</clipPath>
</defs>
</svg>
